<?xml version="1.0" encoding="UTF-8" standalone="no"?>
<!DOCTYPE svg PUBLIC "-//W3C//DTD SVG 1.1//EN"
 "http://www.w3.org/Graphics/SVG/1.1/DTD/svg11.dtd">
<!-- Generated by graphviz version 2.40.1 (20161225.0304)
 -->
<!-- Title: controllers_diagram Pages: 1 -->
<svg width="1195pt" height="1340pt"
 viewBox="0.00 0.00 1195.23 1340.14" xmlns="http://www.w3.org/2000/svg" xmlns:xlink="http://www.w3.org/1999/xlink">
<g id="graph0" class="graph" transform="scale(1 1) rotate(0) translate(4 1336.1351)">
<title>controllers_diagram</title>
<polygon fill="transparent" stroke="transparent" points="-4,4 -4,-1336.1351 1191.2311,-1336.1351 1191.2311,4 -4,4"/>
<!-- _diagram_info -->
<g id="node1" class="node">
<title>_diagram_info</title>
<text text-anchor="start" x="988" y="-847.6" font-family="Times,serif" font-size="13.00" fill="#000000">Controllers diagram</text>
<text text-anchor="start" x="988" y="-833.6" font-family="Times,serif" font-size="13.00" fill="#000000">Date: Nov 17 2019 &#45; 23:07</text>
<text text-anchor="start" x="988" y="-819.6" font-family="Times,serif" font-size="13.00" fill="#000000">Migration version: 0</text>
<text text-anchor="start" x="988" y="-805.6" font-family="Times,serif" font-size="13.00" fill="#000000">Generated by RailRoady 1.5.3</text>
<text text-anchor="start" x="988" y="-791.6" font-family="Times,serif" font-size="13.00" fill="#000000">http://railroady.prestonlee.com</text>
</g>
<!-- OmniauthCallbacksController -->
<g id="node2" class="node">
<title>OmniauthCallbacksController</title>
<path fill="none" stroke="#000000" d="M12,-6.5081C12,-6.5081 168,-6.5081 168,-6.5081 174,-6.5081 180,-12.5081 180,-18.5081 180,-18.5081 180,-87.5081 180,-87.5081 180,-93.5081 174,-99.5081 168,-99.5081 168,-99.5081 12,-99.5081 12,-99.5081 6,-99.5081 0,-93.5081 0,-87.5081 0,-87.5081 0,-18.5081 0,-18.5081 0,-12.5081 6,-6.5081 12,-6.5081"/>
<text text-anchor="middle" x="90" y="-84.3081" font-family="Times,serif" font-size="14.00" fill="#000000">OmniauthCallbacksController</text>
<polyline fill="none" stroke="#000000" points="0,-76.5081 180,-76.5081 "/>
<text text-anchor="start" x="8" y="-61.3081" font-family="Times,serif" font-size="14.00" fill="#000000">google_oauth2</text>
<polyline fill="none" stroke="#000000" points="0,-53.5081 180,-53.5081 "/>
<polyline fill="none" stroke="#000000" points="0,-29.5081 180,-29.5081 "/>
<text text-anchor="start" x="8" y="-14.3081" font-family="Times,serif" font-size="14.00" fill="#000000">_layout</text>
</g>
<!-- SubjectsController -->
<g id="node3" class="node">
<title>SubjectsController</title>
<path fill="none" stroke="#000000" d="M1001.1851,-905.4988C1001.1851,-905.4988 1095.1851,-905.4988 1095.1851,-905.4988 1101.1851,-905.4988 1107.1851,-911.4988 1107.1851,-917.4988 1107.1851,-917.4988 1107.1851,-1016.4988 1107.1851,-1016.4988 1107.1851,-1022.4988 1101.1851,-1028.4988 1095.1851,-1028.4988 1095.1851,-1028.4988 1001.1851,-1028.4988 1001.1851,-1028.4988 995.1851,-1028.4988 989.1851,-1022.4988 989.1851,-1016.4988 989.1851,-1016.4988 989.1851,-917.4988 989.1851,-917.4988 989.1851,-911.4988 995.1851,-905.4988 1001.1851,-905.4988"/>
<text text-anchor="middle" x="1048.1851" y="-1013.2988" font-family="Times,serif" font-size="14.00" fill="#000000">SubjectsController</text>
<polyline fill="none" stroke="#000000" points="989.1851,-1005.4988 1107.1851,-1005.4988 "/>
<text text-anchor="start" x="997.1851" y="-990.2988" font-family="Times,serif" font-size="14.00" fill="#000000">index</text>
<text text-anchor="start" x="997.1851" y="-975.2988" font-family="Times,serif" font-size="14.00" fill="#000000">show</text>
<text text-anchor="start" x="997.1851" y="-960.2988" font-family="Times,serif" font-size="14.00" fill="#000000">view_file</text>
<polyline fill="none" stroke="#000000" points="989.1851,-952.4988 1107.1851,-952.4988 "/>
<polyline fill="none" stroke="#000000" points="989.1851,-928.4988 1107.1851,-928.4988 "/>
<text text-anchor="start" x="997.1851" y="-913.2988" font-family="Times,serif" font-size="14.00" fill="#000000">_layout</text>
</g>
<!-- HomeController -->
<g id="node4" class="node">
<title>HomeController</title>
<path fill="none" stroke="#000000" d="M341.6948,-1072.9658C341.6948,-1072.9658 431.6948,-1072.9658 431.6948,-1072.9658 437.6948,-1072.9658 443.6948,-1078.9658 443.6948,-1084.9658 443.6948,-1084.9658 443.6948,-1183.9658 443.6948,-1183.9658 443.6948,-1189.9658 437.6948,-1195.9658 431.6948,-1195.9658 431.6948,-1195.9658 341.6948,-1195.9658 341.6948,-1195.9658 335.6948,-1195.9658 329.6948,-1189.9658 329.6948,-1183.9658 329.6948,-1183.9658 329.6948,-1084.9658 329.6948,-1084.9658 329.6948,-1078.9658 335.6948,-1072.9658 341.6948,-1072.9658"/>
<text text-anchor="middle" x="386.6948" y="-1180.7658" font-family="Times,serif" font-size="14.00" fill="#000000">HomeController</text>
<polyline fill="none" stroke="#000000" points="329.6948,-1172.9658 443.6948,-1172.9658 "/>
<text text-anchor="start" x="337.6948" y="-1157.7658" font-family="Times,serif" font-size="14.00" fill="#000000">create</text>
<text text-anchor="start" x="337.6948" y="-1142.7658" font-family="Times,serif" font-size="14.00" fill="#000000">index</text>
<text text-anchor="start" x="337.6948" y="-1127.7658" font-family="Times,serif" font-size="14.00" fill="#000000">school_class_new</text>
<polyline fill="none" stroke="#000000" points="329.6948,-1119.9658 443.6948,-1119.9658 "/>
<polyline fill="none" stroke="#000000" points="329.6948,-1095.9658 443.6948,-1095.9658 "/>
<text text-anchor="start" x="337.6948" y="-1080.7658" font-family="Times,serif" font-size="14.00" fill="#000000">_layout</text>
</g>
<!-- DashboardController -->
<g id="node5" class="node">
<title>DashboardController</title>
<path fill="none" stroke="#000000" d="M567.552,-1193.6351C567.552,-1193.6351 674.552,-1193.6351 674.552,-1193.6351 680.552,-1193.6351 686.552,-1199.6351 686.552,-1205.6351 686.552,-1205.6351 686.552,-1319.6351 686.552,-1319.6351 686.552,-1325.6351 680.552,-1331.6351 674.552,-1331.6351 674.552,-1331.6351 567.552,-1331.6351 567.552,-1331.6351 561.552,-1331.6351 555.552,-1325.6351 555.552,-1319.6351 555.552,-1319.6351 555.552,-1205.6351 555.552,-1205.6351 555.552,-1199.6351 561.552,-1193.6351 567.552,-1193.6351"/>
<text text-anchor="middle" x="621.052" y="-1316.4351" font-family="Times,serif" font-size="14.00" fill="#000000">DashboardController</text>
<polyline fill="none" stroke="#000000" points="555.552,-1308.6351 686.552,-1308.6351 "/>
<text text-anchor="start" x="563.552" y="-1293.4351" font-family="Times,serif" font-size="14.00" fill="#000000">delete_file</text>
<text text-anchor="start" x="563.552" y="-1278.4351" font-family="Times,serif" font-size="14.00" fill="#000000">download_file</text>
<text text-anchor="start" x="563.552" y="-1263.4351" font-family="Times,serif" font-size="14.00" fill="#000000">get</text>
<text text-anchor="start" x="563.552" y="-1248.4351" font-family="Times,serif" font-size="14.00" fill="#000000">upload_file</text>
<polyline fill="none" stroke="#000000" points="555.552,-1240.6351 686.552,-1240.6351 "/>
<polyline fill="none" stroke="#000000" points="555.552,-1216.6351 686.552,-1216.6351 "/>
<text text-anchor="start" x="563.552" y="-1201.4351" font-family="Times,serif" font-size="14.00" fill="#000000">_layout</text>
</g>
<!-- PostsController -->
<g id="node6" class="node">
<title>PostsController</title>
<path fill="none" stroke="#000000" d="M865.212,-1138.1716C865.212,-1138.1716 942.212,-1138.1716 942.212,-1138.1716 948.212,-1138.1716 954.212,-1144.1716 954.212,-1150.1716 954.212,-1150.1716 954.212,-1234.1716 954.212,-1234.1716 954.212,-1240.1716 948.212,-1246.1716 942.212,-1246.1716 942.212,-1246.1716 865.212,-1246.1716 865.212,-1246.1716 859.212,-1246.1716 853.212,-1240.1716 853.212,-1234.1716 853.212,-1234.1716 853.212,-1150.1716 853.212,-1150.1716 853.212,-1144.1716 859.212,-1138.1716 865.212,-1138.1716"/>
<text text-anchor="middle" x="903.712" y="-1230.9716" font-family="Times,serif" font-size="14.00" fill="#000000">PostsController</text>
<polyline fill="none" stroke="#000000" points="853.212,-1223.1716 954.212,-1223.1716 "/>
<text text-anchor="start" x="861.212" y="-1207.9716" font-family="Times,serif" font-size="14.00" fill="#000000">create</text>
<text text-anchor="start" x="861.212" y="-1192.9716" font-family="Times,serif" font-size="14.00" fill="#000000">def</text>
<polyline fill="none" stroke="#000000" points="853.212,-1185.1716 954.212,-1185.1716 "/>
<polyline fill="none" stroke="#000000" points="853.212,-1161.1716 954.212,-1161.1716 "/>
<text text-anchor="start" x="861.212" y="-1145.9716" font-family="Times,serif" font-size="14.00" fill="#000000">_layout</text>
</g>
<!-- ApplicationController -->
<g id="node7" class="node">
<title>ApplicationController</title>
<path fill="none" stroke="#000000" d="M582.5598,-867.4572C582.5598,-867.4572 794.5598,-867.4572 794.5598,-867.4572 800.5598,-867.4572 806.5598,-873.4572 806.5598,-879.4572 806.5598,-879.4572 806.5598,-977.4572 806.5598,-977.4572 806.5598,-983.4572 800.5598,-989.4572 794.5598,-989.4572 794.5598,-989.4572 582.5598,-989.4572 582.5598,-989.4572 576.5598,-989.4572 570.5598,-983.4572 570.5598,-977.4572 570.5598,-977.4572 570.5598,-879.4572 570.5598,-879.4572 570.5598,-873.4572 576.5598,-867.4572 582.5598,-867.4572"/>
<text text-anchor="middle" x="688.5598" y="-974.2572" font-family="Times,serif" font-size="14.00" fill="#000000">ApplicationController</text>
<polyline fill="none" stroke="#000000" points="570.5598,-966.4572 806.5598,-966.4572 "/>
<text text-anchor="start" x="578.5598" y="-951.2572" font-family="Times,serif" font-size="14.00" fill="#000000">d_file</text>
<text text-anchor="start" x="578.5598" y="-936.2572" font-family="Times,serif" font-size="14.00" fill="#000000">google_set_up</text>
<polyline fill="none" stroke="#000000" points="570.5598,-928.4572 806.5598,-928.4572 "/>
<text text-anchor="start" x="578.5598" y="-913.2572" font-family="Times,serif" font-size="14.00" fill="#000000">after_sign_in_path_for</text>
<text text-anchor="start" x="578.5598" y="-898.2572" font-family="Times,serif" font-size="14.00" fill="#000000">configure_devise_permitted_parameters</text>
<polyline fill="none" stroke="#000000" points="570.5598,-890.4572 806.5598,-890.4572 "/>
<text text-anchor="start" x="578.5598" y="-875.2572" font-family="Times,serif" font-size="14.00" fill="#000000">_layout</text>
</g>
<!-- ApplicationController&#45;&gt;SubjectsController -->
<g id="edge2" class="edge">
<title>ApplicationController&#45;&gt;SubjectsController</title>
<path fill="none" stroke="#000000" d="M806.8127,-941.1306C867.8195,-947.6687 939.5779,-955.3592 988.9058,-960.6457"/>
</g>
<!-- ApplicationController&#45;&gt;HomeController -->
<g id="edge3" class="edge">
<title>ApplicationController&#45;&gt;HomeController</title>
<path fill="none" stroke="#000000" d="M598.8077,-989.7088C548.5817,-1023.9857 487.4754,-1065.6878 443.7741,-1095.5119"/>
</g>
<!-- ApplicationController&#45;&gt;DashboardController -->
<g id="edge4" class="edge">
<title>ApplicationController&#45;&gt;DashboardController</title>
<path fill="none" stroke="#000000" d="M676.1779,-989.7506C664.5492,-1047.3149 647.1714,-1133.3384 635.0454,-1193.3647"/>
</g>
<!-- ApplicationController&#45;&gt;PostsController -->
<g id="edge5" class="edge">
<title>ApplicationController&#45;&gt;PostsController</title>
<path fill="none" stroke="#000000" d="M738.4609,-989.6215C775.0813,-1034.5075 824.3614,-1094.9108 859.556,-1138.0491"/>
</g>
<!-- DeviseController -->
<g id="node15" class="node">
<title>DeviseController</title>
<path fill="none" stroke="#000000" d="M507.6239,-356.1565C507.6239,-356.1565 674.6239,-356.1565 674.6239,-356.1565 680.6239,-356.1565 686.6239,-362.1565 686.6239,-368.1565 686.6239,-368.1565 686.6239,-736.1565 686.6239,-736.1565 686.6239,-742.1565 680.6239,-748.1565 674.6239,-748.1565 674.6239,-748.1565 507.6239,-748.1565 507.6239,-748.1565 501.6239,-748.1565 495.6239,-742.1565 495.6239,-736.1565 495.6239,-736.1565 495.6239,-368.1565 495.6239,-368.1565 495.6239,-362.1565 501.6239,-356.1565 507.6239,-356.1565"/>
<text text-anchor="middle" x="591.1239" y="-732.9565" font-family="Times,serif" font-size="14.00" fill="#000000">DeviseController</text>
<polyline fill="none" stroke="#000000" points="495.6239,-725.1565 686.6239,-725.1565 "/>
<text text-anchor="start" x="503.6239" y="-709.9565" font-family="Times,serif" font-size="14.00" fill="#000000">_prefixes</text>
<polyline fill="none" stroke="#000000" points="495.6239,-702.1565 686.6239,-702.1565 "/>
<text text-anchor="start" x="503.6239" y="-686.9565" font-family="Times,serif" font-size="14.00" fill="#000000">assert_is_devise_resource!</text>
<text text-anchor="start" x="503.6239" y="-671.9565" font-family="Times,serif" font-size="14.00" fill="#000000">clean_up_passwords</text>
<text text-anchor="start" x="503.6239" y="-656.9565" font-family="Times,serif" font-size="14.00" fill="#000000">devise_i18n_options</text>
<text text-anchor="start" x="503.6239" y="-641.9565" font-family="Times,serif" font-size="14.00" fill="#000000">devise_mapping</text>
<text text-anchor="start" x="503.6239" y="-626.9565" font-family="Times,serif" font-size="14.00" fill="#000000">find_message</text>
<text text-anchor="start" x="503.6239" y="-611.9565" font-family="Times,serif" font-size="14.00" fill="#000000">navigational_formats</text>
<text text-anchor="start" x="503.6239" y="-596.9565" font-family="Times,serif" font-size="14.00" fill="#000000">require_no_authentication</text>
<text text-anchor="start" x="503.6239" y="-581.9565" font-family="Times,serif" font-size="14.00" fill="#000000">resource</text>
<text text-anchor="start" x="503.6239" y="-566.9565" font-family="Times,serif" font-size="14.00" fill="#000000">resource=</text>
<text text-anchor="start" x="503.6239" y="-551.9565" font-family="Times,serif" font-size="14.00" fill="#000000">resource_class</text>
<text text-anchor="start" x="503.6239" y="-536.9565" font-family="Times,serif" font-size="14.00" fill="#000000">resource_name</text>
<text text-anchor="start" x="503.6239" y="-521.9565" font-family="Times,serif" font-size="14.00" fill="#000000">resource_params</text>
<text text-anchor="start" x="503.6239" y="-506.9565" font-family="Times,serif" font-size="14.00" fill="#000000">respond_with_navigational</text>
<text text-anchor="start" x="503.6239" y="-491.9565" font-family="Times,serif" font-size="14.00" fill="#000000">scope_name</text>
<text text-anchor="start" x="503.6239" y="-476.9565" font-family="Times,serif" font-size="14.00" fill="#000000">set_flash_message</text>
<text text-anchor="start" x="503.6239" y="-461.9565" font-family="Times,serif" font-size="14.00" fill="#000000">set_flash_message!</text>
<text text-anchor="start" x="503.6239" y="-446.9565" font-family="Times,serif" font-size="14.00" fill="#000000">set_minimum_password_length</text>
<text text-anchor="start" x="503.6239" y="-431.9565" font-family="Times,serif" font-size="14.00" fill="#000000">signed_in_resource</text>
<text text-anchor="start" x="503.6239" y="-416.9565" font-family="Times,serif" font-size="14.00" fill="#000000">successfully_sent?</text>
<text text-anchor="start" x="503.6239" y="-401.9565" font-family="Times,serif" font-size="14.00" fill="#000000">translation_scope</text>
<text text-anchor="start" x="503.6239" y="-386.9565" font-family="Times,serif" font-size="14.00" fill="#000000">unknown_action!</text>
<polyline fill="none" stroke="#000000" points="495.6239,-379.1565 686.6239,-379.1565 "/>
<text text-anchor="start" x="503.6239" y="-363.9565" font-family="Times,serif" font-size="14.00" fill="#000000">_layout</text>
</g>
<!-- ApplicationController&#45;&gt;DeviseController -->
<g id="edge13" class="edge">
<title>ApplicationController&#45;&gt;DeviseController</title>
<path fill="none" stroke="#000000" d="M672.6882,-867.1605C664.1681,-834.2554 653.139,-791.6611 641.961,-748.4911"/>
</g>
<!-- RegistrationsController -->
<g id="node8" class="node">
<title>RegistrationsController</title>
<path fill="none" stroke="#000000" d="M1034.2311,-.5C1034.2311,-.5 1175.2311,-.5 1175.2311,-.5 1181.2311,-.5 1187.2311,-6.5 1187.2311,-12.5 1187.2311,-12.5 1187.2311,-96.5 1187.2311,-96.5 1187.2311,-102.5 1181.2311,-108.5 1175.2311,-108.5 1175.2311,-108.5 1034.2311,-108.5 1034.2311,-108.5 1028.2311,-108.5 1022.2311,-102.5 1022.2311,-96.5 1022.2311,-96.5 1022.2311,-12.5 1022.2311,-12.5 1022.2311,-6.5 1028.2311,-.5 1034.2311,-.5"/>
<text text-anchor="middle" x="1104.7311" y="-93.3" font-family="Times,serif" font-size="14.00" fill="#000000">RegistrationsController</text>
<polyline fill="none" stroke="#000000" points="1022.2311,-85.5 1187.2311,-85.5 "/>
<polyline fill="none" stroke="#000000" points="1022.2311,-61.5 1187.2311,-61.5 "/>
<text text-anchor="start" x="1030.2311" y="-46.3" font-family="Times,serif" font-size="14.00" fill="#000000">after_sign_up_path_for</text>
<text text-anchor="start" x="1030.2311" y="-31.3" font-family="Times,serif" font-size="14.00" fill="#000000">clear_signup_signout_flash</text>
<polyline fill="none" stroke="#000000" points="1022.2311,-23.5 1187.2311,-23.5 "/>
<text text-anchor="start" x="1030.2311" y="-8.3" font-family="Times,serif" font-size="14.00" fill="#000000">_layout</text>
</g>
<!-- Devise::OmniauthCallbacksController -->
<g id="node9" class="node">
<title>Devise::OmniauthCallbacksController</title>
<path fill="none" stroke="#000000" d="M233.1504,-202.0107C233.1504,-202.0107 434.1504,-202.0107 434.1504,-202.0107 440.1504,-202.0107 446.1504,-208.0107 446.1504,-214.0107 446.1504,-214.0107 446.1504,-342.0107 446.1504,-342.0107 446.1504,-348.0107 440.1504,-354.0107 434.1504,-354.0107 434.1504,-354.0107 233.1504,-354.0107 233.1504,-354.0107 227.1504,-354.0107 221.1504,-348.0107 221.1504,-342.0107 221.1504,-342.0107 221.1504,-214.0107 221.1504,-214.0107 221.1504,-208.0107 227.1504,-202.0107 233.1504,-202.0107"/>
<text text-anchor="middle" x="333.6504" y="-338.8107" font-family="Times,serif" font-size="14.00" fill="#000000">Devise::OmniauthCallbacksController</text>
<polyline fill="none" stroke="#000000" points="221.1504,-331.0107 446.1504,-331.0107 "/>
<text text-anchor="start" x="229.1504" y="-315.8107" font-family="Times,serif" font-size="14.00" fill="#000000">failure</text>
<text text-anchor="start" x="229.1504" y="-300.8107" font-family="Times,serif" font-size="14.00" fill="#000000">passthru</text>
<polyline fill="none" stroke="#000000" points="221.1504,-293.0107 446.1504,-293.0107 "/>
<text text-anchor="start" x="229.1504" y="-277.8107" font-family="Times,serif" font-size="14.00" fill="#000000">after_omniauth_failure_path_for</text>
<text text-anchor="start" x="229.1504" y="-262.8107" font-family="Times,serif" font-size="14.00" fill="#000000">failed_strategy</text>
<text text-anchor="start" x="229.1504" y="-247.8107" font-family="Times,serif" font-size="14.00" fill="#000000">failure_message</text>
<text text-anchor="start" x="229.1504" y="-232.8107" font-family="Times,serif" font-size="14.00" fill="#000000">translation_scope</text>
<polyline fill="none" stroke="#000000" points="221.1504,-225.0107 446.1504,-225.0107 "/>
<text text-anchor="start" x="229.1504" y="-209.8107" font-family="Times,serif" font-size="14.00" fill="#000000">_layout</text>
</g>
<!-- Devise::OmniauthCallbacksController&#45;&gt;OmniauthCallbacksController -->
<g id="edge1" class="edge">
<title>Devise::OmniauthCallbacksController&#45;&gt;OmniauthCallbacksController</title>
<path fill="none" stroke="#000000" d="M251.1615,-201.8351C214.4385,-167.9227 172.3734,-129.0771 140.4291,-99.5776"/>
</g>
<!-- Devise::SessionsController -->
<g id="node10" class="node">
<title>Devise::SessionsController</title>
<path fill="none" stroke="#000000" d="M179.5187,-430.1414C179.5187,-430.1414 319.5187,-430.1414 319.5187,-430.1414 325.5187,-430.1414 331.5187,-436.1414 331.5187,-442.1414 331.5187,-442.1414 331.5187,-630.1414 331.5187,-630.1414 331.5187,-636.1414 325.5187,-642.1414 319.5187,-642.1414 319.5187,-642.1414 179.5187,-642.1414 179.5187,-642.1414 173.5187,-642.1414 167.5187,-636.1414 167.5187,-630.1414 167.5187,-630.1414 167.5187,-442.1414 167.5187,-442.1414 167.5187,-436.1414 173.5187,-430.1414 179.5187,-430.1414"/>
<text text-anchor="middle" x="249.5187" y="-626.9414" font-family="Times,serif" font-size="14.00" fill="#000000">Devise::SessionsController</text>
<polyline fill="none" stroke="#000000" points="167.5187,-619.1414 331.5187,-619.1414 "/>
<text text-anchor="start" x="175.5187" y="-603.9414" font-family="Times,serif" font-size="14.00" fill="#000000">create</text>
<text text-anchor="start" x="175.5187" y="-588.9414" font-family="Times,serif" font-size="14.00" fill="#000000">destroy</text>
<text text-anchor="start" x="175.5187" y="-573.9414" font-family="Times,serif" font-size="14.00" fill="#000000">new</text>
<polyline fill="none" stroke="#000000" points="167.5187,-566.1414 331.5187,-566.1414 "/>
<text text-anchor="start" x="175.5187" y="-550.9414" font-family="Times,serif" font-size="14.00" fill="#000000">auth_options</text>
<text text-anchor="start" x="175.5187" y="-535.9414" font-family="Times,serif" font-size="14.00" fill="#000000">serialize_options</text>
<text text-anchor="start" x="175.5187" y="-520.9414" font-family="Times,serif" font-size="14.00" fill="#000000">sign_in_params</text>
<text text-anchor="start" x="175.5187" y="-505.9414" font-family="Times,serif" font-size="14.00" fill="#000000">translation_scope</text>
<polyline fill="none" stroke="#000000" points="167.5187,-498.1414 331.5187,-498.1414 "/>
<text text-anchor="start" x="175.5187" y="-482.9414" font-family="Times,serif" font-size="14.00" fill="#000000">_layout</text>
<text text-anchor="start" x="175.5187" y="-467.9414" font-family="Times,serif" font-size="14.00" fill="#000000">all_signed_out?</text>
<text text-anchor="start" x="175.5187" y="-452.9414" font-family="Times,serif" font-size="14.00" fill="#000000">respond_to_on_destroy</text>
<text text-anchor="start" x="175.5187" y="-437.9414" font-family="Times,serif" font-size="14.00" fill="#000000">verify_signed_out_user</text>
</g>
<!-- Devise::UnlocksController -->
<g id="node11" class="node">
<title>Devise::UnlocksController</title>
<path fill="none" stroke="#000000" d="M787.457,-485.6383C787.457,-485.6383 1019.457,-485.6383 1019.457,-485.6383 1025.457,-485.6383 1031.457,-491.6383 1031.457,-497.6383 1031.457,-497.6383 1031.457,-625.6383 1031.457,-625.6383 1031.457,-631.6383 1025.457,-637.6383 1019.457,-637.6383 1019.457,-637.6383 787.457,-637.6383 787.457,-637.6383 781.457,-637.6383 775.457,-631.6383 775.457,-625.6383 775.457,-625.6383 775.457,-497.6383 775.457,-497.6383 775.457,-491.6383 781.457,-485.6383 787.457,-485.6383"/>
<text text-anchor="middle" x="903.457" y="-622.4383" font-family="Times,serif" font-size="14.00" fill="#000000">Devise::UnlocksController</text>
<polyline fill="none" stroke="#000000" points="775.457,-614.6383 1031.457,-614.6383 "/>
<text text-anchor="start" x="783.457" y="-599.4383" font-family="Times,serif" font-size="14.00" fill="#000000">create</text>
<text text-anchor="start" x="783.457" y="-584.4383" font-family="Times,serif" font-size="14.00" fill="#000000">new</text>
<text text-anchor="start" x="783.457" y="-569.4383" font-family="Times,serif" font-size="14.00" fill="#000000">show</text>
<polyline fill="none" stroke="#000000" points="775.457,-561.6383 1031.457,-561.6383 "/>
<text text-anchor="start" x="783.457" y="-546.4383" font-family="Times,serif" font-size="14.00" fill="#000000">after_sending_unlock_instructions_path_for</text>
<text text-anchor="start" x="783.457" y="-531.4383" font-family="Times,serif" font-size="14.00" fill="#000000">after_unlock_path_for</text>
<text text-anchor="start" x="783.457" y="-516.4383" font-family="Times,serif" font-size="14.00" fill="#000000">translation_scope</text>
<polyline fill="none" stroke="#000000" points="775.457,-508.6383 1031.457,-508.6383 "/>
<text text-anchor="start" x="783.457" y="-493.4383" font-family="Times,serif" font-size="14.00" fill="#000000">_layout</text>
</g>
<!-- Devise::PasswordsController -->
<g id="node12" class="node">
<title>Devise::PasswordsController</title>
<path fill="none" stroke="#000000" d="M471.8834,-144.0812C471.8834,-144.0812 749.8834,-144.0812 749.8834,-144.0812 755.8834,-144.0812 761.8834,-150.0812 761.8834,-156.0812 761.8834,-156.0812 761.8834,-329.0812 761.8834,-329.0812 761.8834,-335.0812 755.8834,-341.0812 749.8834,-341.0812 749.8834,-341.0812 471.8834,-341.0812 471.8834,-341.0812 465.8834,-341.0812 459.8834,-335.0812 459.8834,-329.0812 459.8834,-329.0812 459.8834,-156.0812 459.8834,-156.0812 459.8834,-150.0812 465.8834,-144.0812 471.8834,-144.0812"/>
<text text-anchor="middle" x="610.8834" y="-325.8812" font-family="Times,serif" font-size="14.00" fill="#000000">Devise::PasswordsController</text>
<polyline fill="none" stroke="#000000" points="459.8834,-318.0812 761.8834,-318.0812 "/>
<text text-anchor="start" x="467.8834" y="-302.8812" font-family="Times,serif" font-size="14.00" fill="#000000">create</text>
<text text-anchor="start" x="467.8834" y="-287.8812" font-family="Times,serif" font-size="14.00" fill="#000000">edit</text>
<text text-anchor="start" x="467.8834" y="-272.8812" font-family="Times,serif" font-size="14.00" fill="#000000">new</text>
<text text-anchor="start" x="467.8834" y="-257.8812" font-family="Times,serif" font-size="14.00" fill="#000000">update</text>
<polyline fill="none" stroke="#000000" points="459.8834,-250.0812 761.8834,-250.0812 "/>
<text text-anchor="start" x="467.8834" y="-234.8812" font-family="Times,serif" font-size="14.00" fill="#000000">after_resetting_password_path_for</text>
<text text-anchor="start" x="467.8834" y="-219.8812" font-family="Times,serif" font-size="14.00" fill="#000000">after_sending_reset_password_instructions_path_for</text>
<text text-anchor="start" x="467.8834" y="-204.8812" font-family="Times,serif" font-size="14.00" fill="#000000">assert_reset_token_passed</text>
<text text-anchor="start" x="467.8834" y="-189.8812" font-family="Times,serif" font-size="14.00" fill="#000000">translation_scope</text>
<text text-anchor="start" x="467.8834" y="-174.8812" font-family="Times,serif" font-size="14.00" fill="#000000">unlockable?</text>
<polyline fill="none" stroke="#000000" points="459.8834,-167.0812 761.8834,-167.0812 "/>
<text text-anchor="start" x="467.8834" y="-151.8812" font-family="Times,serif" font-size="14.00" fill="#000000">_layout</text>
</g>
<!-- Devise::ConfirmationsController -->
<g id="node13" class="node">
<title>Devise::ConfirmationsController</title>
<path fill="none" stroke="#000000" d="M179.8958,-651.1605C179.8958,-651.1605 455.8958,-651.1605 455.8958,-651.1605 461.8958,-651.1605 467.8958,-657.1605 467.8958,-663.1605 467.8958,-663.1605 467.8958,-791.1605 467.8958,-791.1605 467.8958,-797.1605 461.8958,-803.1605 455.8958,-803.1605 455.8958,-803.1605 179.8958,-803.1605 179.8958,-803.1605 173.8958,-803.1605 167.8958,-797.1605 167.8958,-791.1605 167.8958,-791.1605 167.8958,-663.1605 167.8958,-663.1605 167.8958,-657.1605 173.8958,-651.1605 179.8958,-651.1605"/>
<text text-anchor="middle" x="317.8958" y="-787.9605" font-family="Times,serif" font-size="14.00" fill="#000000">Devise::ConfirmationsController</text>
<polyline fill="none" stroke="#000000" points="167.8958,-780.1605 467.8958,-780.1605 "/>
<text text-anchor="start" x="175.8958" y="-764.9605" font-family="Times,serif" font-size="14.00" fill="#000000">create</text>
<text text-anchor="start" x="175.8958" y="-749.9605" font-family="Times,serif" font-size="14.00" fill="#000000">new</text>
<text text-anchor="start" x="175.8958" y="-734.9605" font-family="Times,serif" font-size="14.00" fill="#000000">show</text>
<polyline fill="none" stroke="#000000" points="167.8958,-727.1605 467.8958,-727.1605 "/>
<text text-anchor="start" x="175.8958" y="-711.9605" font-family="Times,serif" font-size="14.00" fill="#000000">after_confirmation_path_for</text>
<text text-anchor="start" x="175.8958" y="-696.9605" font-family="Times,serif" font-size="14.00" fill="#000000">after_resending_confirmation_instructions_path_for</text>
<text text-anchor="start" x="175.8958" y="-681.9605" font-family="Times,serif" font-size="14.00" fill="#000000">translation_scope</text>
<polyline fill="none" stroke="#000000" points="167.8958,-674.1605 467.8958,-674.1605 "/>
<text text-anchor="start" x="175.8958" y="-658.9605" font-family="Times,serif" font-size="14.00" fill="#000000">_layout</text>
</g>
<!-- Devise::RegistrationsController -->
<g id="node14" class="node">
<title>Devise::RegistrationsController</title>
<path fill="none" stroke="#000000" d="M789.9601,-123.4716C789.9601,-123.4716 962.9601,-123.4716 962.9601,-123.4716 968.9601,-123.4716 974.9601,-129.4716 974.9601,-135.4716 974.9601,-135.4716 974.9601,-458.4716 974.9601,-458.4716 974.9601,-464.4716 968.9601,-470.4716 962.9601,-470.4716 962.9601,-470.4716 789.9601,-470.4716 789.9601,-470.4716 783.9601,-470.4716 777.9601,-464.4716 777.9601,-458.4716 777.9601,-458.4716 777.9601,-135.4716 777.9601,-135.4716 777.9601,-129.4716 783.9601,-123.4716 789.9601,-123.4716"/>
<text text-anchor="middle" x="876.4601" y="-455.2716" font-family="Times,serif" font-size="14.00" fill="#000000">Devise::RegistrationsController</text>
<polyline fill="none" stroke="#000000" points="777.9601,-447.4716 974.9601,-447.4716 "/>
<text text-anchor="start" x="785.9601" y="-432.2716" font-family="Times,serif" font-size="14.00" fill="#000000">cancel</text>
<text text-anchor="start" x="785.9601" y="-417.2716" font-family="Times,serif" font-size="14.00" fill="#000000">create</text>
<text text-anchor="start" x="785.9601" y="-402.2716" font-family="Times,serif" font-size="14.00" fill="#000000">destroy</text>
<text text-anchor="start" x="785.9601" y="-387.2716" font-family="Times,serif" font-size="14.00" fill="#000000">edit</text>
<text text-anchor="start" x="785.9601" y="-372.2716" font-family="Times,serif" font-size="14.00" fill="#000000">new</text>
<text text-anchor="start" x="785.9601" y="-357.2716" font-family="Times,serif" font-size="14.00" fill="#000000">update</text>
<polyline fill="none" stroke="#000000" points="777.9601,-349.4716 974.9601,-349.4716 "/>
<text text-anchor="start" x="785.9601" y="-334.2716" font-family="Times,serif" font-size="14.00" fill="#000000">account_update_params</text>
<text text-anchor="start" x="785.9601" y="-319.2716" font-family="Times,serif" font-size="14.00" fill="#000000">after_inactive_sign_up_path_for</text>
<text text-anchor="start" x="785.9601" y="-304.2716" font-family="Times,serif" font-size="14.00" fill="#000000">after_sign_up_path_for</text>
<text text-anchor="start" x="785.9601" y="-289.2716" font-family="Times,serif" font-size="14.00" fill="#000000">after_update_path_for</text>
<text text-anchor="start" x="785.9601" y="-274.2716" font-family="Times,serif" font-size="14.00" fill="#000000">authenticate_scope!</text>
<text text-anchor="start" x="785.9601" y="-259.2716" font-family="Times,serif" font-size="14.00" fill="#000000">build_resource</text>
<text text-anchor="start" x="785.9601" y="-244.2716" font-family="Times,serif" font-size="14.00" fill="#000000">sign_up</text>
<text text-anchor="start" x="785.9601" y="-229.2716" font-family="Times,serif" font-size="14.00" fill="#000000">sign_up_params</text>
<text text-anchor="start" x="785.9601" y="-214.2716" font-family="Times,serif" font-size="14.00" fill="#000000">translation_scope</text>
<text text-anchor="start" x="785.9601" y="-199.2716" font-family="Times,serif" font-size="14.00" fill="#000000">update_needs_confirmation?</text>
<text text-anchor="start" x="785.9601" y="-184.2716" font-family="Times,serif" font-size="14.00" fill="#000000">update_resource</text>
<polyline fill="none" stroke="#000000" points="777.9601,-176.4716 974.9601,-176.4716 "/>
<text text-anchor="start" x="785.9601" y="-161.2716" font-family="Times,serif" font-size="14.00" fill="#000000">_layout</text>
<text text-anchor="start" x="785.9601" y="-146.2716" font-family="Times,serif" font-size="14.00" fill="#000000">set_flash_message_for_update</text>
<text text-anchor="start" x="785.9601" y="-131.2716" font-family="Times,serif" font-size="14.00" fill="#000000">sign_in_after_change_password?</text>
</g>
<!-- Devise::RegistrationsController&#45;&gt;RegistrationsController -->
<g id="edge6" class="edge">
<title>Devise::RegistrationsController&#45;&gt;RegistrationsController</title>
<path fill="none" stroke="#000000" d="M975.2555,-192.0302C1002.3666,-163.2325 1030.6538,-133.1856 1053.8477,-108.5488"/>
</g>
<!-- DeviseController&#45;&gt;Devise::OmniauthCallbacksController -->
<g id="edge7" class="edge">
<title>DeviseController&#45;&gt;Devise::OmniauthCallbacksController</title>
<path fill="none" stroke="#000000" d="M495.6161,-450.4644C465.7053,-418.6167 433.2255,-384.0338 405.2582,-354.2554"/>
</g>
<!-- DeviseController&#45;&gt;Devise::SessionsController -->
<g id="edge8" class="edge">
<title>DeviseController&#45;&gt;Devise::SessionsController</title>
<path fill="none" stroke="#000000" d="M495.5135,-547.6742C443.9972,-545.259 381.0789,-542.3092 331.7704,-539.9976"/>
</g>
<!-- DeviseController&#45;&gt;Devise::UnlocksController -->
<g id="edge9" class="edge">
<title>DeviseController&#45;&gt;Devise::UnlocksController</title>
<path fill="none" stroke="#000000" d="M686.9567,-555.0658C714.8409,-555.9123 745.7577,-556.8509 775.293,-557.7475"/>
</g>
<!-- DeviseController&#45;&gt;Devise::PasswordsController -->
<g id="edge10" class="edge">
<title>DeviseController&#45;&gt;Devise::PasswordsController</title>
<path fill="none" stroke="#000000" d="M603.6379,-356.0978C603.9596,-351.058 604.2772,-346.0812 604.5894,-341.1909"/>
</g>
<!-- DeviseController&#45;&gt;Devise::ConfirmationsController -->
<g id="edge11" class="edge">
<title>DeviseController&#45;&gt;Devise::ConfirmationsController</title>
<path fill="none" stroke="#000000" d="M495.5619,-613.3645C476.6336,-625.4881 456.5462,-638.3542 436.949,-650.9064"/>
</g>
<!-- DeviseController&#45;&gt;Devise::RegistrationsController -->
<g id="edge12" class="edge">
<title>DeviseController&#45;&gt;Devise::RegistrationsController</title>
<path fill="none" stroke="#000000" d="M686.9305,-466.4738C716.0726,-440.411 748.1493,-411.7239 777.4954,-385.4788"/>
</g>
</g>
</svg>
