<?xml version="1.0" encoding="UTF-8" standalone="no"?>
<!DOCTYPE svg PUBLIC "-//W3C//DTD SVG 1.1//EN"
 "http://www.w3.org/Graphics/SVG/1.1/DTD/svg11.dtd">
<!-- Generated by graphviz version 2.40.1 (20161225.0304)
 -->
<!-- Title: models_diagram Pages: 1 -->
<svg width="726pt" height="378pt"
 viewBox="0.00 0.00 726.19 378.00" xmlns="http://www.w3.org/2000/svg" xmlns:xlink="http://www.w3.org/1999/xlink">
<g id="graph0" class="graph" transform="scale(1 1) rotate(0) translate(4 374)">
<title>models_diagram</title>
<polygon fill="transparent" stroke="transparent" points="-4,4 -4,-374 722.1926,-374 722.1926,4 -4,4"/>
<!-- _diagram_info -->
<g id="node1" class="node">
<title>_diagram_info</title>
<text text-anchor="start" x="200.895" y="-355.6" font-family="Times,serif" font-size="13.00" fill="#000000">Models diagram</text>
<text text-anchor="start" x="200.895" y="-341.6" font-family="Times,serif" font-size="13.00" fill="#000000">Date: Nov 17 2019 &#45; 23:07</text>
<text text-anchor="start" x="200.895" y="-327.6" font-family="Times,serif" font-size="13.00" fill="#000000">Migration version: 0</text>
<text text-anchor="start" x="200.895" y="-313.6" font-family="Times,serif" font-size="13.00" fill="#000000">Generated by RailRoady 1.5.3</text>
<text text-anchor="start" x="200.895" y="-299.6" font-family="Times,serif" font-size="13.00" fill="#000000">http://railroady.prestonlee.com</text>
</g>
<!-- Membership -->
<g id="node2" class="node">
<title>Membership</title>
<ellipse fill="none" stroke="#000000" cx="55.895" cy="-237" rx="55.7903" ry="18"/>
<text text-anchor="middle" x="55.895" y="-233.3" font-family="Times,serif" font-size="14.00" fill="#000000">Membership</text>
</g>
<!-- PostStudent -->
<g id="node3" class="node">
<title>PostStudent</title>
<ellipse fill="none" stroke="#000000" cx="182.895" cy="-237" rx="52.7911" ry="18"/>
<text text-anchor="middle" x="182.895" y="-233.3" font-family="Times,serif" font-size="14.00" fill="#000000">PostStudent</text>
</g>
<!-- Child -->
<g id="node4" class="node">
<title>Child</title>
<ellipse fill="none" stroke="#000000" cx="283.895" cy="-237" rx="30.5947" ry="18"/>
<text text-anchor="middle" x="283.895" y="-233.3" font-family="Times,serif" font-size="14.00" fill="#000000">Child</text>
</g>
<!-- SchoolClassTeacher -->
<g id="node5" class="node">
<title>SchoolClassTeacher</title>
<ellipse fill="none" stroke="#000000" cx="414.895" cy="-237" rx="82.5854" ry="18"/>
<text text-anchor="middle" x="414.895" y="-233.3" font-family="Times,serif" font-size="14.00" fill="#000000">SchoolClassTeacher</text>
</g>
<!-- School -->
<g id="node6" class="node">
<title>School</title>
<ellipse fill="none" stroke="#000000" cx="588.895" cy="-237" rx="35.194" ry="18"/>
<text text-anchor="middle" x="588.895" y="-233.3" font-family="Times,serif" font-size="14.00" fill="#000000">School</text>
</g>
<!-- SchoolClass -->
<g id="node8" class="node">
<title>SchoolClass</title>
<ellipse fill="none" stroke="#000000" cx="607.895" cy="-164" rx="53.8905" ry="18"/>
<text text-anchor="middle" x="607.895" y="-160.3" font-family="Times,serif" font-size="14.00" fill="#000000">SchoolClass</text>
</g>
<!-- School&#45;&gt;SchoolClass -->
<g id="edge5" class="edge">
<title>School&#45;&gt;SchoolClass</title>
<path fill="none" stroke="#f3a9b8" d="M595.6109,-211.1968C597.2148,-205.0345 598.9349,-198.426 600.5648,-192.1634"/>
<ellipse fill="none" stroke="#f3a9b8" cx="594.5992" cy="-215.084" rx="4" ry="4"/>
<polygon fill="#f3a9b8" stroke="#f3a9b8" points="600.6677,-191.7679 607.5415,-183.2239 601.9271,-186.9292 603.1866,-182.0904 603.1866,-182.0904 603.1866,-182.0904 601.9271,-186.9292 598.8317,-180.9569 600.6677,-191.7679 600.6677,-191.7679"/>
</g>
<!-- Post -->
<g id="node7" class="node">
<title>Post</title>
<ellipse fill="none" stroke="#000000" cx="589.895" cy="-18" rx="27" ry="18"/>
<text text-anchor="middle" x="589.895" y="-14.3" font-family="Times,serif" font-size="14.00" fill="#000000">Post</text>
</g>
<!-- Post&#45;&gt;SchoolClass -->
<g id="edge8" class="edge">
<title>Post&#45;&gt;SchoolClass</title>
<path fill="none" stroke="#c86bcf" d="M588.6258,-46.398C588.2857,-64.4316 588.6986,-88.2073 591.895,-109 593.2852,-118.0427 595.7425,-127.6892 598.3205,-136.3377"/>
<polygon fill="#c86bcf" stroke="#c86bcf" points="588.6299,-46.2463 593.4054,-36.3749 588.7685,-41.2483 588.9071,-36.2502 588.9071,-36.2502 588.9071,-36.2502 588.7685,-41.2483 584.4088,-36.1254 588.6299,-46.2463 588.6299,-46.2463"/>
<polygon fill="#c86bcf" stroke="#c86bcf" points="598.3396,-136.3983 597.0537,-147.2885 599.8426,-141.1671 601.3456,-145.9358 601.3456,-145.9358 601.3456,-145.9358 599.8426,-141.1671 605.6375,-144.5831 598.3396,-136.3983 598.3396,-136.3983"/>
</g>
<!-- User -->
<g id="node9" class="node">
<title>User</title>
<ellipse fill="none" stroke="#000000" cx="627.895" cy="-91" rx="27.0966" ry="18"/>
<text text-anchor="middle" x="627.895" y="-87.3" font-family="Times,serif" font-size="14.00" fill="#000000">User</text>
</g>
<!-- Post&#45;&gt;User -->
<g id="edge7" class="edge">
<title>Post&#45;&gt;User</title>
<path fill="none" stroke="#65a36f" d="M609.1317,-42.6185C613.0494,-49.3998 616.9436,-56.7954 620.2482,-63.7176"/>
<polygon fill="#65a36f" stroke="#65a36f" points="609.0052,-42.4094 607.6778,-31.5242 606.4165,-38.1317 603.8279,-33.854 603.8279,-33.854 603.8279,-33.854 606.4165,-38.1317 599.9779,-36.1838 609.0052,-42.4094 609.0052,-42.4094"/>
<polygon fill="#65a36f" stroke="#65a36f" points="620.3036,-63.8404 620.3159,-74.8063 622.3605,-68.3977 624.4175,-72.9551 624.4175,-72.9551 624.4175,-72.9551 622.3605,-68.3977 628.5191,-71.1038 620.3036,-63.8404 620.3036,-63.8404"/>
</g>
<!-- SchoolClass&#45;&gt;User -->
<g id="edge10" class="edge">
<title>SchoolClass&#45;&gt;User</title>
<path fill="none" stroke="#102cc1" d="M615.5431,-136.0848C617.1092,-130.3684 618.7569,-124.3542 620.3204,-118.6473"/>
<polygon fill="#102cc1" stroke="#102cc1" points="615.4813,-136.3105 608.4988,-144.766 614.1601,-141.1328 612.8389,-145.9551 612.8389,-145.9551 612.8389,-145.9551 614.1601,-141.1328 617.1789,-147.1441 615.4813,-136.3105 615.4813,-136.3105"/>
<polygon fill="#102cc1" stroke="#102cc1" points="620.3657,-118.482 627.3482,-110.0265 621.6869,-113.6597 623.0081,-108.8374 623.0081,-108.8374 623.0081,-108.8374 621.6869,-113.6597 618.668,-107.6483 620.3657,-118.482 620.3657,-118.482"/>
</g>
<!-- User&#45;&gt;Post -->
<g id="edge12" class="edge">
<title>User&#45;&gt;Post</title>
<path fill="none" stroke="#f406c3" d="M609.7569,-68.2656C605.4377,-60.9255 601.0829,-52.7152 597.4513,-45.0924"/>
<ellipse fill="none" stroke="#f406c3" cx="611.885" cy="-71.7472" rx="4" ry="4"/>
<polygon fill="#f406c3" stroke="#f406c3" points="597.4004,-44.9792 597.3983,-34.0133 595.3477,-40.42 593.295,-35.8607 593.295,-35.8607 593.295,-35.8607 595.3477,-40.42 589.1917,-37.7081 597.4004,-44.9792 597.4004,-44.9792"/>
</g>
<!-- User&#45;&gt;User -->
<g id="edge13" class="edge">
<title>User&#45;&gt;User</title>
<path fill="none" stroke="#8ea79e" d="M661.5146,-97.4886C668.3219,-96.7774 673.1926,-94.6145 673.1926,-91 673.1926,-87.77 669.3031,-85.6992 663.6178,-84.7876"/>
<ellipse fill="none" stroke="#8ea79e" cx="657.5055" cy="-97.5897" rx="4" ry="4"/>
<polygon fill="#8ea79e" stroke="#8ea79e" points="663.4956,-84.782 653.7195,-79.8144 658.5012,-84.5456 653.5068,-84.3093 653.5068,-84.3093 653.5068,-84.3093 658.5012,-84.5456 653.2941,-88.8043 663.4956,-84.782 663.4956,-84.782"/>
<text text-anchor="middle" x="695.6926" y="-87.3" font-family="Times,serif" font-size="14.00" fill="#000000">children</text>
</g>
<!-- ApplicationRecord -->
<g id="node10" class="node">
<title>ApplicationRecord</title>
<ellipse fill="none" stroke="#000000" cx="469.895" cy="-331" rx="77.1866" ry="18"/>
<text text-anchor="middle" x="469.895" y="-327.3" font-family="Times,serif" font-size="14.00" fill="#000000">ApplicationRecord</text>
</g>
<!-- ApplicationRecord&#45;&gt;Membership -->
<g id="edge1" class="edge">
<title>ApplicationRecord&#45;&gt;Membership</title>
<path fill="none" stroke="#000000" d="M438.8642,-314.3216C422.8639,-306.4012 402.7867,-297.4889 383.895,-292 270.5425,-259.0661 236.4643,-279.0245 120.895,-255 113.0993,-253.3794 104.8589,-251.3498 96.96,-249.2427"/>
</g>
<!-- ApplicationRecord&#45;&gt;PostStudent -->
<g id="edge2" class="edge">
<title>ApplicationRecord&#45;&gt;PostStudent</title>
<path fill="none" stroke="#000000" d="M436.9398,-314.4892C421.1477,-306.9846 401.8104,-298.379 383.895,-292 323.2651,-270.412 305.8761,-272.3313 243.895,-255 236.9831,-253.0673 229.6485,-250.9556 222.5515,-248.8804"/>
</g>
<!-- ApplicationRecord&#45;&gt;Child -->
<g id="edge3" class="edge">
<title>ApplicationRecord&#45;&gt;Child</title>
<path fill="none" stroke="#000000" d="M437.4963,-314.6264C400.2348,-295.7954 339.9845,-265.3463 307.1111,-248.7329"/>
</g>
<!-- ApplicationRecord&#45;&gt;SchoolClassTeacher -->
<g id="edge4" class="edge">
<title>ApplicationRecord&#45;&gt;SchoolClassTeacher</title>
<path fill="none" stroke="#000000" d="M459.2905,-312.8759C449.5512,-296.2306 435.196,-271.6962 425.467,-255.0685"/>
</g>
<!-- ApplicationRecord&#45;&gt;School -->
<g id="edge6" class="edge">
<title>ApplicationRecord&#45;&gt;School</title>
<path fill="none" stroke="#000000" d="M491.9991,-313.5396C514.3144,-295.9124 548.4315,-268.9628 569.662,-252.1925"/>
</g>
<!-- ApplicationRecord&#45;&gt;Post -->
<g id="edge9" class="edge">
<title>ApplicationRecord&#45;&gt;Post</title>
<path fill="none" stroke="#000000" d="M488.2315,-313.4159C504.5635,-295.7857 525.895,-267.0136 525.895,-237 525.895,-237 525.895,-237 525.895,-91 525.895,-64.2012 550.5835,-42.5312 569.2928,-29.957"/>
</g>
<!-- ApplicationRecord&#45;&gt;SchoolClass -->
<g id="edge11" class="edge">
<title>ApplicationRecord&#45;&gt;SchoolClass</title>
<path fill="none" stroke="#000000" d="M530.3516,-319.7119C566.8079,-309.4555 610.414,-290.2866 632.895,-255 647.4206,-232.2004 632.8363,-200.9877 620.6323,-181.6783"/>
</g>
<!-- ApplicationRecord&#45;&gt;User -->
<g id="edge14" class="edge">
<title>ApplicationRecord&#45;&gt;User</title>
<path fill="none" stroke="#000000" d="M538.4029,-322.5733C579.4336,-313.4583 627.9497,-294.4863 650.895,-255 675.6412,-212.4148 686.938,-192.5672 670.895,-146 665.5258,-130.4151 653.7257,-115.8667 643.8428,-105.652"/>
</g>
</g>
</svg>
